<svg xmlns="http://www.w3.org/2000/svg" viewBox="0 0 64 64" role="img" aria-label="Dakwah">
  <defs>
    <linearGradient id="bg" x1="10" x2="54" y1="8" y2="58" gradientUnits="userSpaceOnUse">
      <stop offset="0" stop-color="#16a085" />
      <stop offset="1" stop-color="#075f4d" />
    </linearGradient>
    <linearGradient id="page" x1="20" x2="46" y1="34" y2="52" gradientUnits="userSpaceOnUse">
      <stop offset="0" stop-color="#ffffff" />
      <stop offset="1" stop-color="#d7f8ec" />
    </linearGradient>
  </defs>
  <rect width="64" height="64" rx="16" fill="url(#bg)" />
  <path
    d="M43.8 13.8A16.9 16.9 0 1 0 51 42.1 18.7 18.7 0 1 1 43.8 13.8Z"
    fill="#f7fff8"
    opacity=".94"
  />
  <path d="M32 12.8 34.2 17l4.6.7-3.3 3.2.8 4.6-4.3-2.2-4.1 2.2.8-4.6-3.4-3.2 4.7-.7L32 12.8Z" fill="#f8d46b" />
  <path
    d="M18 36.3c0-2.2 1.8-3.8 4-3.4 4.1.8 7.4 2.5 10 5.2 2.6-2.7 5.9-4.4 10-5.2 2.2-.4 4 1.2 4 3.4v14.4c0 1.4-1.1 2.3-2.4 2.1-4.6-.8-8.4.1-11.6 2.9-3.2-2.8-7-3.7-11.6-2.9-1.3.2-2.4-.7-2.4-2.1V36.3Z"
    fill="url(#page)"
  />
  <path d="M32 38.1v17.5M22.7 38.7c2.7.5 5 1.5 6.8 3M41.3 38.7c-2.7.5-5 1.5-6.8 3" fill="none" stroke="#08624f" stroke-linecap="round" stroke-linejoin="round" stroke-width="2.1" />
</svg>
