<svg xmlns="http://www.w3.org/2000/svg" viewBox="0 0 64 64" role="img" aria-label="Dakwah">
  <defs>
    <linearGradient id="outer" x1="7" x2="57" y1="4" y2="60" gradientUnits="userSpaceOnUse">
      <stop offset="0" stop-color="#bdf3ce" />
      <stop offset="1" stop-color="#d7f8de" />
    </linearGradient>
    <linearGradient id="inner" x1="13" x2="52" y1="7" y2="59" gradientUnits="userSpaceOnUse">
      <stop offset="0" stop-color="#03977c" />
      <stop offset="1" stop-color="#006857" />
    </linearGradient>
  </defs>

  <rect width="64" height="64" rx="6" fill="#f4efe7" />
  <rect x="2" y="2" width="60" height="60" rx="6" fill="url(#outer)" />
  <rect x="4" y="4" width="56" height="56" rx="12" fill="url(#inner)" />
  <path d="M32 14.5 33.4 18.3 37.5 18.3 34.2 20.8 35.5 24.8 32 22.4 28.5 24.8 29.8 20.8 26.5 18.3 30.6 18.3Z" fill="#ffc83d" />
  <path d="M21.6 24c-.1 7.6 4.5 12.8 10.4 12.8S42.5 31.6 42.4 24c-1.9 6.5-5.6 9.8-10.4 9.8S23.5 30.5 21.6 24Z" fill="#fff" />
  <path d="M15 39c6-1 11 .3 16 3.5v11c-4.7-3.3-10-4.6-16-3.7Z" fill="#fff" />
  <path d="M33 42.5c5-3.2 10-4.5 16-3.5l.2 10.8c-6-.9-11.3.4-16.2 3.7Z" fill="#fff" />
  <path d="M31 42.5v11M33 42.5v11" stroke="#087461" stroke-linecap="round" stroke-width="1.4" />
</svg>
