<svg xmlns="http://www.w3.org/2000/svg" viewBox="0 0 64 64" role="img" aria-label="Dakwah">
  <defs>
    <linearGradient id="tile" x1="9" x2="55" y1="6" y2="58" gradientUnits="userSpaceOnUse">
      <stop offset="0" stop-color="#0ba98b" />
      <stop offset="1" stop-color="#075f4d" />
    </linearGradient>
    <linearGradient id="edge" x1="2" x2="62" y1="2" y2="62" gradientUnits="userSpaceOnUse">
      <stop offset="0" stop-color="#d8f8df" />
      <stop offset="1" stop-color="#a9ebc7" />
    </linearGradient>
  </defs>

  <rect width="64" height="64" rx="6" fill="#f8faf7" />
  <rect x="2" y="2" width="60" height="60" rx="7" fill="url(#edge)" />
  <rect x="5" y="5" width="54" height="54" rx="12" fill="url(#tile)" />

  <g fill="none" stroke="#fff" stroke-linecap="round" stroke-linejoin="round" stroke-width="3.8">
    <path d="M12.5 54h39" />
    <path d="M19 46.3c0-8.1 5.8-13.9 13-16.3 7.2 2.4 13 8.2 13 16.3" fill="#fff" fill-opacity=".1" />
    <path d="M15.8 54V39.4M48.2 54V39.4" />
    <path d="M27.1 54v-4.9c0-2.7 2.2-4.9 4.9-4.9s4.9 2.2 4.9 4.9V54" />
  </g>
  <path d="M32 9a7.2 7.2 0 0 0 0 14.4A9.6 9.6 0 0 1 32 9Z" fill="#fff" />
</svg>
