<svg xmlns="http://www.w3.org/2000/svg" viewBox="0 0 512 512" role="img" aria-label="Dakwah">
  <defs>
    <linearGradient id="tile" x1="78" x2="434" y1="44" y2="468" gradientUnits="userSpaceOnUse">
      <stop offset="0" stop-color="#0ba98b" />
      <stop offset="1" stop-color="#075f4d" />
    </linearGradient>
    <linearGradient id="edge" x1="0" x2="512" y1="0" y2="512" gradientUnits="userSpaceOnUse">
      <stop offset="0" stop-color="#d8f8df" />
      <stop offset="1" stop-color="#a9ebc7" />
    </linearGradient>
    <filter id="soft-shadow" x="-8%" y="-8%" width="116%" height="116%" color-interpolation-filters="sRGB">
      <feDropShadow dx="0" dy="12" stdDeviation="16" flood-color="#063f35" flood-opacity=".22" />
    </filter>
  </defs>

  <rect width="512" height="512" fill="url(#edge)" />
  <rect x="46" y="46" width="420" height="420" rx="92" fill="url(#tile)" filter="url(#soft-shadow)" />

  <g fill="none" stroke="#fff" stroke-linecap="round" stroke-linejoin="round" stroke-width="28">
    <path d="M108 420h296" />
    <path d="M158 360c0-62 44-105 98-124 54 19 98 62 98 124" fill="#fff" fill-opacity=".1" />
    <path d="M132 420V310M380 420V310" />
    <path d="M219 420v-37c0-21 16-37 37-37s37 16 37 37v37" />
  </g>
  <path d="M256 82a54 54 0 0 0 0 108 72 72 0 0 1 0-108Z" fill="#fff" />
</svg>
