<svg xmlns="http://www.w3.org/2000/svg" viewBox="0 0 512 512" role="img" aria-label="Dakwah">
  <defs>
    <linearGradient id="bg" x1="64" x2="448" y1="48" y2="464" gradientUnits="userSpaceOnUse">
      <stop offset="0" stop-color="#16a085" />
      <stop offset="1" stop-color="#075f4d" />
    </linearGradient>
    <linearGradient id="page" x1="166" x2="358" y1="286" y2="422" gradientUnits="userSpaceOnUse">
      <stop offset="0" stop-color="#ffffff" />
      <stop offset="1" stop-color="#d7f8ec" />
    </linearGradient>
  </defs>
  <rect width="512" height="512" fill="url(#bg)" />
  <path
    d="M352 118A136 136 0 1 0 410 345 152 152 0 1 1 352 118Z"
    fill="#f7fff8"
    opacity=".94"
  />
  <path d="M256 112 272.8 144.4l35.6 5.2-25.6 25 6 35.2-32.8-17.2-31.6 17.2 6-35.2-26-25 36-5.2L256 112Z" fill="#f8d46b" />
  <path
    d="M154 302c0-16.4 13.4-28.4 29.8-25.4 30.6 6 55.2 18.6 74.6 38.8 19.4-20.2 44-32.8 74.6-38.8 16.4-3 29.8 9 29.8 25.4v107.4c0 10.4-8.2 17.2-17.8 15.6-34.4-6-62.8.8-86.6 21.6-23.8-20.8-52.2-27.6-86.6-21.6-9.6 1.6-17.8-5.2-17.8-15.6V302Z"
    fill="url(#page)"
  />
  <path d="M258.4 315.4v130.4M189 319.8c20.2 3.8 37.4 11.2 50.8 22.4M327.8 319.8c-20.2 3.8-37.4 11.2-50.8 22.4" fill="none" stroke="#08624f" stroke-linecap="round" stroke-linejoin="round" stroke-width="15.6" />
</svg>
