<svg xmlns="http://www.w3.org/2000/svg" viewBox="0 0 512 512" role="img" aria-label="Dakwah">
  <defs>
    <linearGradient id="tile" x1="72" x2="440" y1="48" y2="464" gradientUnits="userSpaceOnUse">
      <stop offset="0" stop-color="#0ba98b" />
      <stop offset="1" stop-color="#075f4d" />
    </linearGradient>
    <linearGradient id="edge" x1="60" x2="452" y1="36" y2="476" gradientUnits="userSpaceOnUse">
      <stop offset="0" stop-color="#d8f8df" />
      <stop offset="1" stop-color="#a9ebc7" />
    </linearGradient>
    <filter id="soft-shadow" x="-8%" y="-8%" width="116%" height="116%" color-interpolation-filters="sRGB">
      <feDropShadow dx="0" dy="12" stdDeviation="16" flood-color="#063f35" flood-opacity=".22" />
    </filter>
  </defs>

  <rect width="512" height="512" rx="44" fill="#f8faf7" />
  <rect x="16" y="16" width="480" height="480" rx="52" fill="url(#edge)" />
  <rect x="36" y="36" width="440" height="440" rx="96" fill="url(#tile)" filter="url(#soft-shadow)" />

  <g fill="none" stroke="#fff" stroke-linecap="round" stroke-linejoin="round" stroke-width="30">
    <path d="M100 432h312" />
    <path d="M152 370c0-65 46-111 104-130 58 19 104 65 104 130" fill="#fff" fill-opacity=".1" />
    <path d="M126 432V315M386 432V315" />
    <path d="M217 432v-39c0-22 17-39 39-39s39 17 39 39v39" />
  </g>
  <path d="M256 72a58 58 0 0 0 0 116 77 77 0 0 1 0-116Z" fill="#fff" />
</svg>
