<svg xmlns="http://www.w3.org/2000/svg" viewBox="0 0 512 512" role="img" aria-label="Dakwah">
  <defs>
    <linearGradient id="bg" x1="64" x2="448" y1="48" y2="464" gradientUnits="userSpaceOnUse">
      <stop offset="0" stop-color="#16a085" />
      <stop offset="1" stop-color="#075f4d" />
    </linearGradient>
    <linearGradient id="page" x1="158" x2="366" y1="272" y2="420" gradientUnits="userSpaceOnUse">
      <stop offset="0" stop-color="#ffffff" />
      <stop offset="1" stop-color="#d7f8ec" />
    </linearGradient>
  </defs>
  <rect width="512" height="512" rx="112" fill="url(#bg)" />
  <path
    d="M350.4 110.4A135.2 135.2 0 1 0 408 336.8 149.6 149.6 0 1 1 350.4 110.4Z"
    fill="#f7fff8"
    opacity=".94"
  />
  <path d="M256 102.4 273.6 136l36.8 5.6-26.4 25.6 6.4 36.8-34.4-17.6-32.8 17.6 6.4-36.8-27.2-25.6 37.6-5.6L256 102.4Z" fill="#f8d46b" />
  <path
    d="M144 290.4c0-17.6 14.4-30.4 32-27.2 32.8 6.4 59.2 20 80 41.6 20.8-21.6 47.2-35.2 80-41.6 17.6-3.2 32 9.6 32 27.2v115.2c0 11.2-8.8 18.4-19.2 16.8-36.8-6.4-67.2.8-92.8 23.2-25.6-22.4-56-29.6-92.8-23.2-10.4 1.6-19.2-5.6-19.2-16.8V290.4Z"
    fill="url(#page)"
  />
  <path d="M256 304.8v140M181.6 309.6c21.6 4 40 12 54.4 24M330.4 309.6c-21.6 4-40 12-54.4 24" fill="none" stroke="#08624f" stroke-linecap="round" stroke-linejoin="round" stroke-width="16.8" />
</svg>
